<svg xmlns="http://www.w3.org/2000/svg" xmlns:xlink="http://www.w3.org/1999/xlink" width="291" height="240" viewBox="0 0 291 240"><defs><path id="7nl7a" d="M3915 368.39c0 2.76.14 4.9.42 6.45a6.83 6.83 0 0 0 1.7 3.67 8.4 8.4 0 0 0 3.74 2.07c1.64.48 3.86 1 6.67 1.54v1.24a347.25 347.25 0 0 0-32.53 0v-1.24c2.46-.2 4.4-.58 5.79-1.13a6.67 6.67 0 0 0 3.24-2.59c.74-1.16 1.22-2.69 1.44-4.59.2-1.9.3-4.29.3-7.17v-34.5c0-2.9-.1-5.3-.3-7.18-.22-1.9-.7-3.42-1.44-4.6a6.67 6.67 0 0 0-3.24-2.59c-1.4-.55-3.33-.93-5.8-1.12v-1.24a152.93 152.93 0 0 0 8.67.36c1.69.03 3.3.05 4.82.05h26.03c3.49 0 6.56-.05 9.24-.16 2.66-.1 5.47-.19 8.4-.25-.12 1.43-.23 2.87-.3 4.28a123.87 123.87 0 0 0 0 9.5c.07 1.76.18 3.53.3 5.32h-1.64c-1.1-3.93-2.51-6.97-4.25-9.14a15.77 15.77 0 0 0-6.16-4.75c-2.36-1-5.04-1.6-8.06-1.8-3-.22-6.3-.32-9.85-.32-1.16 0-2.33.04-3.49.1-1.16.08-2.4.1-3.7.1v25.62h8.22c4.1 0 7.28-.86 9.54-2.58 2.27-1.72 4.07-4.54 5.44-8.46h1.23a330.56 330.56 0 0 0 0 27.67h-1.23a43.1 43.1 0 0 0-2.15-6.35 13 13 0 0 0-2.73-4.08 9.54 9.54 0 0 0-3.84-2.28c-1.5-.47-3.35-.81-5.55-1.03a40.83 40.83 0 0 0-4.1-.2h-4.82zm43.18 13.73c2.45-.2 4.38-.58 5.74-1.13a6.36 6.36 0 0 0 3.13-2.59c.72-1.16 1.16-2.69 1.34-4.59.17-1.9.25-4.29.25-7.17v-34.5c0-2.9-.08-5.3-.25-7.18-.18-1.9-.62-3.42-1.34-4.6a6.33 6.33 0 0 0-3.23-2.59 21.45 21.45 0 0 0-5.85-1.12v-1.24a355.63 355.63 0 0 0 16.72.4 231.12 231.12 0 0 0 13.45-.4v1.24c-2.4.2-4.28.57-5.64 1.12a6.07 6.07 0 0 0-3.08 2.6 10.77 10.77 0 0 0-1.28 4.6 76.48 76.48 0 0 0-.26 7.17v34.5c0 2.88.07 5.28.26 7.17.16 1.9.61 3.43 1.33 4.6a6.32 6.32 0 0 0 3.23 2.58c1.43.55 3.42.93 5.95 1.13v1.24a299.67 299.67 0 0 0-23.09-.3c-2.46.06-4.93.17-7.38.3zm36.18-32.74c0-5.57 1-10.56 3.02-14.98 2-4.4 4.73-8.14 8.16-11.2a35.16 35.16 0 0 1 12.05-7.02 44.2 44.2 0 0 1 14.73-2.42c5.2 0 10.12.8 14.73 2.42a35.2 35.2 0 0 1 12.05 7.03 33.36 33.36 0 0 1 8.16 11.2 35.58 35.58 0 0 1 3.04 14.97c0 5.6-1.02 10.58-3.04 14.98a33.34 33.34 0 0 1-8.16 11.2 35.1 35.1 0 0 1-12.05 7.02 44.21 44.21 0 0 1-14.73 2.44c-5.2 0-10.1-.82-14.73-2.44a35.06 35.06 0 0 1-12.05-7.02 33.3 33.3 0 0 1-8.16-11.2c-2.02-4.4-3.02-9.39-3.02-14.98zm10.87 0c0 4.21.61 8.23 1.83 12.1a32.04 32.04 0 0 0 5.35 10.16 26.16 26.16 0 0 0 8.52 7.03 24.22 24.22 0 0 0 11.4 2.62c4.22 0 8.02-.87 11.39-2.62 3.36-1.76 6.2-4.1 8.51-7.03a31.68 31.68 0 0 0 5.33-10.17 39.5 39.5 0 0 0 1.85-12.09c0-4.2-.61-8.22-1.85-12.08a31.78 31.78 0 0 0-5.33-10.17 26.36 26.36 0 0 0-8.51-7.03 24.2 24.2 0 0 0-11.4-2.63c-4.24 0-8.04.87-11.4 2.63a26.4 26.4 0 0 0-8.51 7.03 32.14 32.14 0 0 0-5.35 10.17 39.74 39.74 0 0 0-1.83 12.08c0 4.2 0 0 0 0zm141.61 33.57h-18.47c-4.3-4.75-8.28-9.62-11.95-14.6-3.66-5-6.94-10.29-9.8-15.87-.68 0-1.54-.06-2.63-.2l-3.27-.46a47.48 47.48 0 0 1-5.9-1.3v16.12c0 2.88.09 5.28.25 7.17.17 1.9.62 3.43 1.34 4.6a6.32 6.32 0 0 0 3.23 2.58c1.45.55 3.42.93 5.96 1.13v1.24a300.6 300.6 0 0 0-23.1-.3c-2.45.06-4.92.16-7.38.3v-1.24c2.46-.2 4.37-.58 5.74-1.13a6.33 6.33 0 0 0 3.13-2.59 10.4 10.4 0 0 0 1.33-4.59c.18-1.9.26-4.29.26-7.17v-34.5c0-2.9-.08-5.3-.26-7.18-.17-1.9-.6-3.42-1.33-4.6a6.34 6.34 0 0 0-3.13-2.59 20.66 20.66 0 0 0-5.74-1.12v-1.24a200.15 200.15 0 0 0 13.13.4c.97 0 2.15-.04 3.6-.15l4.56-.35c1.6-.14 3.23-.26 4.87-.37 1.65-.1 3.12-.15 4.41-.15 2.95 0 5.96.38 9.04 1.13 3.07.75 5.84 1.96 8.32 3.62a20.65 20.65 0 0 1 6.05 6.3 17 17 0 0 1 2.36 9.09c0 2.4-.44 4.53-1.28 6.4a15.93 15.93 0 0 1-3.45 4.86 17.95 17.95 0 0 1-5.08 3.4 26.96 26.96 0 0 1-6.1 1.96 188.8 188.8 0 0 0 3.39 5.58 86.06 86.06 0 0 0 4.36 6.3c1.61 2.13 3.32 4.25 5.13 6.35 1.8 2.1 9.83 8.77 11.96 9.92a17.07 17.07 0 0 0 6.45 2.01zM4094.82 347a26.83 26.83 0 0 0 9.54 1.76c5.35 0 9.48-1.24 12.43-3.73 2.93-2.47 4.4-6.5 4.4-12.07 0-2.28-.42-4.32-1.28-6.16a14.51 14.51 0 0 0-3.54-4.75 16.3 16.3 0 0 0-5.2-3.1 17.35 17.35 0 0 0-6.08-1.08c-1.73 0-3.4.08-5.05.2-1.62.14-3.24.45-4.81.94-.14 3.3-.24 6.65-.32 10.02a573.3 573.3 0 0 0-.09 10.94zm57.7 35.11c2.46-.2 4.39-.58 5.76-1.13a6.4 6.4 0 0 0 3.13-2.59c.7-1.16 1.15-2.69 1.33-4.59.17-1.9.26-4.29.26-7.17v-34.5c0-2.9-.1-5.3-.26-7.18-.18-1.9-.62-3.42-1.33-4.6a6.4 6.4 0 0 0-3.23-2.59 21.7 21.7 0 0 0-5.87-1.12v-1.24a354.25 354.25 0 0 0 16.74.4 230.96 230.96 0 0 0 13.43-.4v1.24c-2.38.2-4.25.57-5.62 1.12a5.93 5.93 0 0 0-3.08 2.6c-.7 1.17-1.13 2.7-1.28 4.6a78.66 78.66 0 0 0-.27 7.17v34.5c0 2.88.09 5.28.27 7.17.15 1.9.6 3.43 1.33 4.6a6.16 6.16 0 0 0 3.22 2.58c1.44.55 3.42.93 5.95 1.13v1.24a300.24 300.24 0 0 0-23.08-.3c-2.47.06-4.94.17-7.4.3zm-164.79 14.35l.36 4.86h-.36a6.1 6.1 0 0 0-2.02-3.14 5.19 5.19 0 0 0-3.15-.96 4.88 4.88 0 0 0-4.74 3.03 9.49 9.49 0 0 0-.71 3.92c0 1.3.22 2.41.67 3.36a4.8 4.8 0 0 0 2.03 2.17c.9.51 1.93.76 3.08.76 1 0 1.9-.2 2.66-.6a8.57 8.57 0 0 0 2.54-2.35l.34.2a7.72 7.72 0 0 1-2.72 2.8 7.3 7.3 0 0 1-3.67.88c-2.56 0-4.54-.88-5.95-2.63a7.14 7.14 0 0 1-1.57-4.61c0-1.42.34-2.73 1.03-3.92a7.18 7.18 0 0 1 2.85-2.78 8.22 8.22 0 0 1 3.98-1c1.11 0 2.21.26 3.3.77.32.15.55.23.7.23a.8.8 0 0 0 .53-.2c.2-.19.34-.45.41-.8zm10.06 0c2 0 3.74.7 5.2 2.11a7 7 0 0 1 2.22 5.28 7.47 7.47 0 0 1-7.6 7.54c-2.13 0-3.92-.7-5.37-2.1a7.2 7.2 0 0 1-2.17-5.42c0-2.26.83-4.11 2.5-5.54a7.74 7.74 0 0 1 5.22-1.87zm-.22.77a4.2 4.2 0 0 0-3.32 1.43c-1.05 1.17-1.57 2.9-1.57 5.17 0 2.33.54 4.12 1.62 5.38a4.1 4.1 0 0 0 3.27 1.43c1.46 0 2.66-.52 3.6-1.56.96-1.05 1.43-2.7 1.43-4.95 0-2.45-.52-4.27-1.57-5.46a4.33 4.33 0 0 0-3.46-1.44zm18.1 13.83l-5.97-12.01v9.54c0 .87.1 1.42.31 1.64.27.3.72.44 1.33.44h.54v.4h-5.38v-.4h.55c.65 0 1.11-.18 1.39-.55.17-.22.26-.73.26-1.53v-9.32c0-.64-.08-1.1-.23-1.37-.1-.2-.3-.37-.59-.51a3.37 3.37 0 0 0-1.38-.21v-.4h4.38l5.62 11.18 5.5-11.18h4.38v.4h-.53c-.67 0-1.13.18-1.4.55-.17.22-.25.74-.25 1.54v9.32c0 .87.1 1.42.31 1.64.29.3.73.44 1.34.44h.53v.4h-6.55v-.4h.53c.67 0 1.13-.18 1.4-.55.16-.22.25-.73.25-1.53v-9.54l-5.97 12.01zm16-6.68v4.16c0 .9.1 1.46.32 1.67.29.31.72.46 1.3.46h.6v.4h-6.63v-.4h.58c.66 0 1.13-.2 1.4-.59.17-.22.24-.73.24-1.54v-9.22c0-.9-.1-1.45-.3-1.67-.3-.31-.75-.47-1.34-.47h-.58v-.4h5.67c1.38 0 2.48.14 3.28.4.8.27 1.47.72 2.02 1.34.54.62.81 1.36.81 2.21a3.6 3.6 0 0 1-1.24 2.85c-.83.73-2 1.09-3.53 1.09-.37 0-.78-.02-1.22-.07-.43-.05-.9-.12-1.39-.22zm0-.6a19.25 19.25 0 0 0 1.87.21c.79 0 1.47-.28 2.04-.85.57-.57.86-1.3.86-2.2 0-.6-.14-1.18-.41-1.71a2.68 2.68 0 0 0-1.16-1.19 3.6 3.6 0 0 0-1.7-.39c-.39 0-.89.06-1.5.2zm18.88 2.51h-5.98l-1.05 2.25c-.26.55-.4.96-.4 1.24 0 .22.12.41.34.58.23.16.72.27 1.46.31v.4h-4.87v-.4c.64-.1 1.06-.24 1.25-.4.38-.34.81-1.03 1.29-2.06l5.44-11.75h.4l5.39 11.88c.42.95.81 1.57 1.16 1.85.36.29.85.45 1.48.48v.4h-6.1v-.4c.63-.03 1.04-.12 1.25-.28a.72.72 0 0 0 .32-.6c0-.3-.15-.78-.45-1.45zm-.32-.78l-2.62-5.77-2.69 5.77zm6.2-8.73h4.2l9.45 10.71v-8.22c0-.88-.11-1.43-.33-1.65-.27-.3-.72-.44-1.33-.44h-.54v-.4h5.38v.4h-.53c-.67 0-1.13.18-1.4.55-.17.22-.24.74-.24 1.54v12.03h-.42l-10.2-11.5v8.8c0 .86.1 1.4.32 1.63.28.3.72.44 1.33.44h.55v.4h-5.38v-.4h.52c.67 0 1.14-.18 1.4-.55.18-.22.26-.73.26-1.53v-9.92c-.45-.49-.78-.8-1.01-.96-.23-.16-.58-.3-1.03-.44-.22-.06-.55-.1-1-.1zm28.3 0h5.39v.4h-.29a3.44 3.44 0 0 0-1.9.93c-.32.3-.7.8-1.16 1.49l-3.72 5.41v3.58c0 .87.1 1.42.31 1.64.3.3.75.44 1.38.44h.5v.4h-6.58v-.4h.56c.65 0 1.1-.18 1.38-.55.17-.22.26-.73.26-1.53v-3.38l-4.24-5.98c-.5-.7-.85-1.13-1.03-1.31a3.87 3.87 0 0 0-1.1-.64c-.16-.07-.38-.1-.67-.1v-.4h6.61v.4h-.34c-.36 0-.69.08-.98.23-.3.16-.45.4-.45.7 0 .25.23.7.7 1.37l3.22 4.59 3.03-4.4c.46-.66.68-1.15.68-1.47a.9.9 0 0 0-.16-.53 1.09 1.09 0 0 0-.47-.36 2.5 2.5 0 0 0-.92-.13zm-74-207.11l-.2.09-1.28-2.68c.17-.15.34-.28.51-.36a1.36 1.36 0 0 1 1.94.7c.14.26.2.54.2.84 0 .3-.12.57-.38.82-.24.25-.5.44-.79.59 0 0 .05-.02 0 0zm57.6 71.2a4.65 4.65 0 0 1 1.53 2.08c.17.68.06 1.22-.32 1.66-.38.43-.91.61-1.58.53-.67-.1-1.44-.5-2.27-1.25-.9-.77-1.4-1.5-1.56-2.15-.14-.65-.01-1.18.35-1.59.4-.46.93-.64 1.61-.52.66.11 1.37.5 2.12 1.14-.18-.16-.48-.42 0 0l.11.1zm-62.8 9.72c.34.09.64.22.9.4.06.02.1.06.19.13l-1.66 2.45a2.7 2.7 0 0 1-.57-.26 1.4 1.4 0 0 1-.65-.92c-.09-.37 0-.74.27-1.12.16-.25.37-.45.63-.59.26-.14.55-.17.9-.09 0 0-.34-.09 0 0zm19.12-85.53a39.22 39.22 0 0 1-.42-2.9c.3-.14.55-.23.76-.26.29-.04.57.03.84.24.24.2.4.54.48 1.02.16 1.09-.4 1.72-1.66 1.9 0 0 .15.82 0 0zm-21.7 9.92c-.67-.9-1-1.7-1.03-2.38-.02-.68.19-1.19.67-1.53.46-.35 1.03-.4 1.66-.16.63.23 1.29.8 1.95 1.7.69.96 1.03 1.77 1.03 2.45-.01.66-.24 1.16-.69 1.48-.47.35-1.02.4-1.64.16l-.06-.03a4.64 4.64 0 0 1-1.9-1.69zm77.55 38.6l-1.28.45c-.52.18-.92.32-1.22.4l.08-1.96 2.42 1.11s.29-.08 0 0zm-88.55 26.5c.31-.23.71-.29 1.21-.2-.04.78-.21 1.28-.52 1.5a.68.68 0 0 1-.54.14.65.65 0 0 1-.43-.26.78.78 0 0 1-.12-.58c.03-.24.16-.43.4-.6 0 0-.31.22 0 0zm4.78-2.69c.26.38.31.8.17 1.24-.15.45-.4.79-.73 1.03-.42.3-.96.36-1.63.16.09-1.1.4-2.16.92-3.2.61.19 1.03.44 1.27.77 0 0-.26-.37 0 0zm28.47-72.01c.55-.08.99.02 1.3.3.32.28.52.66.58 1.16.07.49-.01.9-.23 1.21-.22.32-.58.52-1.13.6-.28.03-.46.01-.52-.08-.08-.1-.16-.48-.25-1.15-.1-.53-.16-1.16-.24-1.94l.49-.1s-.55.07 0 0zm6.3 89.5c.62 0 1.12.3 1.46.9.36.6.54 1.43.52 2.5a4.62 4.62 0 0 1-.58 2.51c-.4.57-.87.85-1.47.85-.56-.01-1.04-.3-1.43-.87a4.65 4.65 0 0 1-.53-2.53c0-1.19.21-2.05.61-2.59.41-.53.9-.78 1.43-.78 0 0-.61 0 0 0zm53.7-43.3a53.25 53.25 0 0 1-53.2 53.3 53.27 53.27 0 0 1-53.24-53.3 53.26 53.26 0 0 1 53.24-53.3 53.24 53.24 0 0 1 53.2 53.3zm-107.27 0c0 29.84 24.25 54.14 54.07 54.14 29.8 0 54.04-24.3 54.04-54.15 0-29.86-24.24-54.15-54.04-54.15-3.27 0-6.47.3-9.57.85-3.6 0-5.61 0 0 0a54.21 54.21 0 0 0-44.5 53.3zm103.3-5.92c-.25.1-1 .22-2.3.3-2.02.17-3.18.21-3.5.17-.33-.06-.52-.27-.56-.64-.03-.22-.07-.33-.19-.32-.09 0-.14.1-.14.28l.19 1.74c.02.18.03.45.03.81 0 .43 0 .71.02.86.02.18.08.25.2.24.07 0 .11-.03.13-.07.02-.06.02-.17.01-.35 0-.24 0-.43.05-.54a.74.74 0 0 1 .34-.29c.16-.06.44-.11.84-.15l2.06-.15c.04.7-.01 1.17-.2 1.37-.2.22-.45.35-.78.42-.16.02-.23.08-.22.18 0 .06.03.1.08.12.05.01.37 0 .99-.03l1.78-.09c.12 0 .2-.07.19-.18 0-.06-.07-.1-.17-.12a2 2 0 0 1-.82-.27c-.14-.1-.25-.26-.33-.48a4.82 4.82 0 0 1-.16-.94c1.7-.12 2.6-.16 2.71-.1.13.06.23.36.26.91.06.8-.02 1.39-.24 1.76-.22.38-.54.73-.97 1.04-.07.06-.1.11-.1.17 0 .07.05.1.16.1l.08-.02 1.65-.41-.44-6.09c-.03-.21-.08-.31-.19-.3-.11 0-.15.07-.15.2l.02.15c.03.36-.08.6-.32.7.05-.01.18-.07 0 0l-.01.02zm-3.96-9.6c.3.16.08.04 0 0l-.02-.01c-.39-.2-.8-.24-1.2-.1-.43.12-.73.38-.93.77-.21.38-.25.8-.1 1.21a1.57 1.57 0 0 0 1.98 1.04c.42-.14.72-.4.92-.79a1.56 1.56 0 0 0-.65-2.12zm-4.2-13.16c.1.27.15.47.14.59-.01.14-.1.27-.29.4-.18.14-.69.46-1.51.96l-2.46 1.45c-.5.31-.88.47-1.1.46-.23 0-.44-.16-.63-.47-.07-.12-.16-.15-.24-.1-.1.06-.11.16-.01.31a18.72 18.72 0 0 1 1.44 2.32c.23.43.48.89.78 1.37l1.03 1.72 1.54-.51c.1-.03.17-.06.22-.09.06-.05.08-.11.03-.2-.04-.06-.13-.1-.26-.08-1 .08-1.86-.49-2.6-1.69-.2-.33-.3-.59-.3-.78 0-.19.07-.34.19-.44.12-.1.55-.37 1.26-.8.18-.11.53-.32 1.07-.62.28.49.42.89.41 1.21-.02.31-.17.59-.42.84-.14.13-.2.24-.16.31.07.1.15.13.23.07l.08-.05c.1-.1.21-.18.34-.27.98-.59 1.58-.93 1.8-1l.08-.04c.07-.05.08-.1.04-.2-.06-.07-.13-.1-.25-.06-.07.02-.24.03-.5.04-.28 0-.48-.05-.65-.18-.15-.12-.3-.3-.44-.52l-.2-.37.55-.35c.67-.4 1.3-.75 1.89-1.02.22.23.4.48.56.77.32.5.48.94.49 1.3 0 .37-.12.86-.4 1.47-.05.12-.05.2-.02.25.04.1.13.1.21.05l1.3-1.2-2.31-3.82-.65-1.17c-.07-.11-.15-.15-.25-.09-.06.05-.08.12-.04.21-.02-.05-.08-.18 0 0v.02zm-72.17 52.25c1.4-.18 2.78-.66 4.17-1.46-.3 1.44-.28 2.6-1.88 3.53a.9.9 0 0 1-.49.13 38.83 38.83 0 0 0 29.3 13.26 39 39 0 0 0 38.97-39.04c0-8.64-2.8-16.63-7.57-23.1v7.45l-.65.49c-.1.16-.18.29-.3.38.3-.03.63-.03.95 0v3.47a1.64 1.64 0 0 1-.16-1.17c.3-1.4-1.2-1.88-2.33-1.63-.35.16-.7.3-1.07.43.47-.06 1.29.19 1.42.52l.02.06c.54.3 1 .73 1.13 1.3.05.21.06.41.05.6.24-.05.46-.03.61.23.19.3-.02.62-.12 1-.17.59-1.15 1.48-1.65.99-.56-.57-1.27-.43-1.26-1.13l.29-.17-.12-.13c-.06.04-.14.08-.23.11 0-.3-.21-.6-.48-.46.42-.86.14-1.38.01-1.98-.09-.05-.16-.1-.26-.14l.05.32c.1.6.14 1.17.08 1.81-.3 0-.36.27-.54.1l-.14-.15-.14.07c.07.1.14.2.14.27-.02.53-.75.76-1.1.91-.43.2-.86.35-1.34.46a.67.67 0 0 1-.24.01l-.3-.3c-.15-.45.01-1.29.2-1.88a.53.53 0 0 1-.2-.07c-.3-.19-.46-.56-.22-.92.3-.45-.17-.82-.6-.89-.14 0-.28-.03-.44-.05.44.72 1.04 1.92.74 2.67-.07.13-.32.11-.71-.02l-4.04-3.85-.55-.52-.36-.23-4.33-2.9-.48-.3-2.98-2-.26-.17-1.24-.83h-1.93v8.4l-.43-.23c-1.37-.52-6.7-1.35-5.32-3.72.42-.71 1.8-1.74 2.69-2.27 1.58-.96 2.82-2.79 4.08-3.9.77-.7 1.6.48 2.26 2.3l.01-.02s2.28 1.89 4.3 2.6c2.76.28 9.16.06 11.72-7.36-.2-.02-.34-.05-.4-.09h3.47c-.05.18-.17.48-.34.88.3-.15.73-.41 1.12-.79a38.88 38.88 0 0 0-29.48-13.52 38.88 38.88 0 0 0-29.43 13.43h4.33c1.27 1 2.48 2.33 3.84 3.73.32-.22.73-.33 1.19-.25a1.1 1.1 0 0 1-.3-.93c-.1.04-.18.08-.27.1-.95.23-1.52-.14-1.77-.62a1.08 1.08 0 0 1 .4-2.03h.2c.11.02.24.05.36.1l.11.08c.2-.03.4.02.63.12.33.14.61 0 .84-.3h1a3.95 3.95 0 0 1-.54 1.65c.46-.05.88.2 1.07.61.07-.36.08-.75 0-1.1-.16-.37-.31-.75-.45-1.16h1c.22.44.47.88.76 1.32.3-.16.69-.18 1-.02a1.07 1.07 0 0 1 .38 1.62c.1.1.19.21.3.3l.05-.08c.5-.71 1.48-.9 2.2-.4.06.05.12.09.16.14a15 15 0 0 1 3.35-2.81l.08-.07h5.77c.48 3.08 1.26 7.12 0 8.45-.12.15-5.3-1.37-6.12-1.76-.89-.45-2.39-.68-3.12-1.46-.59.49-1.57.6-2.52-.17-.07-.06-.38-.32-.8-.79.04.86.35 2.66 2.2 3.1.1-.22.23-.4.49-.53 1.94-1.15 2.86.54 3.92.78 2.5.51 3.44.83 5.7 1.44-.7.77-.85 2.02.13 2.3-4.1 1.68-3.5 4.61-6.05 6.91-.39.35-.79-.04-1.2-.77.48 1.43.39 3.23-.62 5.86-1.31-3.2-5.74-4.01-8.15-8.22-.34-.62-.62-1.24-.83-1.84v-.43c0-1.04-.17-2.02-.51-2.97.06-.98.25-2 .62-3.1a1.64 1.64 0 0 1-.53-.15c-.4.47-.73.95-.98 1.42-.3-.47-.66-.95-1.06-1.4.43-.24.88-.46 1.35-.64-.15-.23-.23-.5-.25-.75-.59.17-1.08.2-1.55.16.49-.14 1-.23 1.54-.28l.02-.17c.04-.27.16-.52.3-.75a12 12 0 0 0-4.64-.24c-1.6-1-3.21-1.6-4.83-1.79a39.02 39.02 0 0 0-7.79 23.42c0 8.85 2.96 17.03 7.92 23.58 0 0-1.39.19 0 0zm13.24-42.43c-.46-.3-.42-.88-.35-1.25-.25.43-.57.77-1 .99-.15.07-.31.13-.45.17 2.4 5.39 6.4 6.9 8.07 9.71a32.92 32.92 0 0 1-1.33-4.74c-.15-.7-.5-1.48-.81-2.22a3.6 3.6 0 0 1-1.62-.9c-.91-.83-1.28-2.84-1.02-4.35-.3-.34-.66-.78-1.01-1.3l-.07-.12a36.7 36.7 0 0 0-.25-.39l.02.18c.11.83-.01 1.95-.45 2.83a1 1 0 0 0 .2.46c.2-.21.52-.28.79-.12.3.17.4.57.22.86a.63.63 0 0 1-.82.27c.08.05.15.1 0 0a.52.52 0 0 1-.12-.08zm48.54 1.52a1.6 1.6 0 0 1-.22-2.03c.1-.15.22-.26.35-.35-.75-.03-1.5-.45-1.68-1.36-.1-.5-.37-.78-.72-.94a1.07 1.07 0 0 1-.42-.1 2.47 2.47 0 0 0-1.65.5c-.3.32-.62.66-1 .98l.14-.05c.94-.3 2.48-.32 3.16.56.99 1.3.02 2.34-.71 2.34-.71.01-1.43-.46-1.42-1.32.02-1.1-2.36-.74-3.17-.36-.27.18.63-.13.35.04.62-.1 1.55 0 1.9.6.55.89-.14 1.5-.62 1.45-.45-.05-.88-.4-.82-.95.1-.7-.66-.87-1.21-.7-.29.15-.6.3-.92.41.44 0 1 .15 1.21.56.38.7-.18 1.11-.54 1.05-.33-.05-.64-.33-.56-.74.1-.54-.48-.7-.9-.58-.77.24-1.62.41-2.54.53 4.15.84 7.6 3.97 4.85 4.12 2-.01 4.12-.6 6.14-2.23.05-.15.09-.3.18-.47.15-.3.43-.64.82-.96 0 0 .55.53 0 0zm-5.17 5.53c-.28-.17-.5-.34-.58-.77-.03-.14.07-.28.2-.4-.12-.05-.26-.1-.4-.12-.32.02-.65.02-1 .01.38.17.79.49.88.9.28.04.47.29.75.51.02.03.07.05.1.07 0-.06.02-.14.05-.2 0 0 .27.17 0 0zm-.03-1.43l.1-.06s.05-.01.06-.03l-.35-.01c-.16.03.03.07.19.1 0 0-.05.02 0 0zm-2.86-.48a4.69 4.69 0 0 1-.54-.08l.02.03.52.05s.17.02 0 0zm7.49-11.08l-.37-.43c-.46.25-.96.46-1.43.57-.24.54-.6 1.23-1.12 1.95l.16-.1c.27-.16.6-.3.94-.42.05-.03.12-.04.2-.07a4.96 4.96 0 0 1 1.64-.23c.16-.1.27-.24.33-.37a.66.66 0 0 1-.42-.67.5.5 0 0 1 .07-.23s.12.14 0 0zm1.29 1.67l-.48-.65c-.2.15-.45.22-.63.26.4.04.78.16 1.1.39zm3.7-11.68c-.17.21-.4.45-.7.72l-2.25 1.93c-.38.34-.64.63-.78.89-.13.26-.2.54-.2.85 0 .31.1.65.31 1.02.2.38.47.77.84 1.19a4 4 0 0 0 1.43 1.11c.5.2.95.24 1.42.1a5.42 5.42 0 0 0 1.76-1.16c1.1-.96 1.8-1.54 2.09-1.74.28-.2.55-.29.76-.28.2.01.39.08.51.21.11.09.2.1.25.05.09-.07.07-.17-.06-.3-.05-.07-.13-.17-.28-.3a4.34 4.34 0 0 1-.47-.5c-.15-.17-.3-.33-.4-.5l-.27-.34c-.12-.14-.22-.17-.3-.1-.06.08-.04.2.08.38.17.24.18.51.05.8-.17.3-.56.72-1.14 1.24-1.03.9-1.77 1.48-2.22 1.73a2 2 0 0 1-1.2.29 2 2 0 0 1-1.1-.71 2.39 2.39 0 0 1-.61-1.2c-.05-.4.02-.74.22-1.05.21-.32.71-.82 1.52-1.5.48-.43.94-.81 1.36-1.15.46-.33.78-.5.99-.52.22-.01.43.07.61.27.1.1.2.12.27.06.07-.07.04-.17-.07-.31a12.32 12.32 0 0 0-.98-1.02l-1.12-1.38c-.11-.12-.2-.15-.29-.07a.17.17 0 0 0-.05.11c0 .03.04.1.11.22.12.17.18.32.18.44 0 .14-.08.32-.26.52 0 0 .17-.22 0 0zm-3.6-4.56l-.13-.1a3.79 3.79 0 0 0-2.88-.85 3.7 3.7 0 0 0-2.61 1.42c-.44.56-.7 1.16-.8 1.81a3.42 3.42 0 0 0 2 3.64c-.28-.05-.9-.2-1.88-.47-1.5-.4-2.43-.4-2.78.05a.4.4 0 0 0-.08.37c0 .14.09.25.2.35.15.12.28.16.42.14.11-.02.27-.13.43-.32.18-.2.33-.32.48-.35.13-.04.28 0 .44.12.1.1.2.25.3.45.08.2.23.59.41 1.12.28.74.65 1.3 1.14 1.68.5.4 1.06.56 1.68.47.62-.09.96-.18 1.04-.27.08-.11.08-.22-.02-.3-.07-.05-.16-.06-.26-.02-.5.16-.9.12-1.21-.14a.78.78 0 0 1-.24-.24c-.04-.08-.15-.3-.29-.66-.19-.5-.36-.88-.5-1.11a2.03 2.03 0 0 0-.81-.8l1.72.4a7.8 7.8 0 0 0 1.5.2c.48 0 .92-.04 1.34-.15a3.8 3.8 0 0 0 2.81-3.96 3.63 3.63 0 0 0-1.41-2.48zm-7.07-4.13c.02.13-.04.37-.2.72-.17.35-.53 1.02-1.12 2-.54.94-.95 1.62-1.25 2.05-.25.43-.49.68-.66.73-.16.06-.38.04-.68-.1-.1-.04-.18-.02-.22.05-.05.1-.02.17.09.25l.28.13a15.27 15.27 0 0 1 2.28 1.36l.2.14c.16.1.29.1.35-.02.04-.08 0-.17-.16-.26-.23-.13-.34-.3-.36-.48-.02-.19.1-.56.4-1.13a42.96 42.96 0 0 1 2.39-4c.18-.22.34-.34.48-.36.12-.01.3.03.57.15.13.06.2.05.25-.03.06-.09.02-.16-.1-.24l-1.49-.82-.62-.4-.66-.43c-.12-.08-.2-.06-.26.02-.05.1-.01.17.1.25.22.16.34.3.39.42 0 0-.03-.13 0 0zm-9.68 2.88c-.04.07 0 .13.06.18l.32.14.65.24c.17.06.68.29 1.5.63l1.04.47.15.07c.11.05.2.02.23-.07.04-.09-.01-.17-.15-.23-.36-.18-.6-.35-.66-.46-.09-.12-.1-.26-.09-.43.03-.18.17-.64.45-1.4l.92-2.33c.33-.78.64-1.43.92-1.93.62.27 1.04.49 1.28.66.25.18.43.4.55.69.1.28.18.6.2.92 0 .2.05.31.13.35.13.04.2 0 .25-.13l.27-.84c.13-.45.24-.75.27-.9a18.05 18.05 0 0 0-1.03-.42c-.8-.28-1.5-.56-2.14-.83-.85-.36-2.17-.94-3.9-1.73-.17.25-.36.57-.58.98l-.35.64c-.04.1-.01.18.12.23.06.03.16 0 .28-.1.28-.28.58-.46.9-.58.31-.1.62-.13.87-.07.28.07.7.21 1.25.45a39.73 39.73 0 0 1-2.16 5.36.92.92 0 0 1-.54.47c-.2.07-.46.03-.75-.1-.14-.05-.23-.03-.26.07 0 0 .04-.07 0 0zm-8.11-4.42c-.12.51-.15.9-.1 1.18.04.28.17.55.35.8.19.25.47.46.84.64.38.2.82.33 1.37.46a4 4 0 0 0 1.81.03c.53-.14.92-.4 1.2-.77.3-.38.53-1.05.74-1.99.3-1.41.51-2.3.64-2.63.1-.34.25-.56.44-.68a.85.85 0 0 1 .55-.15c.11.02.2-.02.21-.1.02-.1-.05-.18-.23-.22l-.38-.06c-.28-.04-.5-.07-.7-.12l-.63-.16-.41-.12c-.15-.03-.26-.01-.29.1-.03.1.07.2.28.26.29.09.47.3.53.63a5 5 0 0 1-.18 1.66 14.53 14.53 0 0 1-.76 2.71c-.21.47-.46.78-.8.95-.32.18-.75.2-1.28.08a2.41 2.41 0 0 1-1.22-.6c-.26-.27-.41-.6-.43-.97a9.3 9.3 0 0 1 .3-2.1c.13-.64.29-1.22.44-1.74.15-.53.3-.87.47-1 .16-.15.38-.2.65-.16.14.02.21-.01.24-.1.03-.11-.06-.18-.24-.22l-.8-.14a4.7 4.7 0 0 1-.58-.1l-1.73-.43c-.17-.03-.23.01-.27.1-.01.07-.01.1.04.14 0 .03.1.07.2.11a.8.8 0 0 1 .41.26c.08.1.12.3.1.56-.01.27-.06.6-.14 1l-.64 2.9s.11-.51 0 0zm-8-4.34a3.7 3.7 0 0 0-1.2 2.7 3.4 3.4 0 0 0 1.02 2.7 3.82 3.82 0 0 0 2.63 1.08 3.8 3.8 0 0 0 2.9-1.13 3.79 3.79 0 0 0 .78-4.58 3.6 3.6 0 0 0-3.25-1.84 3.89 3.89 0 0 0-2.85 1.05c.11-.11.67-.64 0 0-.01 0-.02 0-.02.02zm-8.92-.06c-.09.03-.12.08-.11.17.01.05.04.09.08.1.05.02.14.03.29.02.16-.02.3 0 .4.04a.5.5 0 0 1 .2.27c.08.13.16.43.25.91.08.47.18 1.1.29 1.9l.32 2.58c.05.25.05.45-.01.58a.57.57 0 0 1-.22.28c-.1.06-.26.13-.47.2-.13.02-.17.08-.17.16.02.1.1.14.24.13l.37-.09a13.49 13.49 0 0 1 1.77-.26l.88-.1c.77-.1 1.33-.25 1.72-.42.38-.18.7-.45.92-.82.22-.38.3-.78.24-1.2-.07-.5-.32-.9-.75-1.17a3.67 3.67 0 0 0-1.8-.5c1.23-.56 1.8-1.27 1.66-2.12a1.41 1.41 0 0 0-.78-1.12c-.43-.24-1-.3-1.66-.21-.23.03-.53.09-.9.17-.63.14-1.3.27-2.04.37-.4.05-.64.1-.72.13 0 0 .08-.03 0 0zm-14.74 5.6c-.2.09-.25.18-.21.27.04.1.14.12.28.05.36-.17.63-.17.8 0 .2.17.5.7.94 1.64l.86 1.79.46.93c.33.7.44 1.12.33 1.3-.11.16-.26.3-.44.39-.13.05-.17.13-.12.22.05.1.14.11.27.04.08-.03.27-.13.56-.3l.78-.4 1.55-.7c.13-.06.17-.14.13-.23-.04-.1-.15-.11-.3-.04-.28.12-.5.15-.66.08-.17-.08-.3-.24-.45-.51l-1.05-2.15.3-.17c.27-.13.53-.18.79-.16.24.02.49.14.72.36.22.22.55.64.95 1.25.33.48.62.76.93.87l1.95-.87c.16-.08.27-.16.3-.23v.08c.04.1.11.13.25.08l.26-.1c.25-.12.63-.27 1.18-.45.24-.08.69-.2 1.37-.37l.23-.08c.18-.06.25-.15.22-.27-.04-.1-.15-.11-.3-.06-.26.08-.46.07-.62-.03-.15-.11-.35-.46-.58-1.05-.23-.59-.54-1.45-.9-2.55-.32-.97-.5-1.59-.56-1.9-.04-.27 0-.47.05-.58.07-.1.25-.21.5-.33.13-.06.17-.13.14-.22s-.12-.12-.25-.07l-1.59.58c-.18.06-.41.13-.71.2l-.76.23c-.14.04-.18.1-.16.2.04.1.12.13.26.1.25-.06.44-.07.57-.01.1.05.25.26.41.6.16.37.42 1.09.79 2.16.33 1.03.57 1.8.7 2.29.16.5.2.82.14.98-.07.17-.24.31-.53.45a.18.18 0 0 0-.09.09l-.01-.07c-.04-.1-.16-.1-.31-.04a1 1 0 0 1-.8.01c-.25-.1-.58-.42-1-.93-.46-.55-.87-.86-1.24-.93-.4-.07-.84-.02-1.32.13.4-.24.71-.49.95-.76.25-.28.4-.59.49-.94a1.58 1.58 0 0 0-1.34-1.9 3.44 3.44 0 0 0-2 .4l-.76.4c-.62.37-1.4.78-2.35 1.22 0 0 .18-.09 0 0zm-6.18 5.56a3.71 3.71 0 0 0 .67 2.88 3.42 3.42 0 0 0 2.48 1.52 3.9 3.9 0 0 0 2.74-.76 3.85 3.85 0 0 0 1.6-2.66 3.92 3.92 0 0 0-.67-2.9c-.4-.55-.9-.95-1.5-1.2-.6-.26-1.23-.36-1.86-.26-.62.08-1.24.34-1.85.78a3.81 3.81 0 0 0-1.59 2.46c.04-.23.1-.63 0 0l-.02.14zm-4.87 3.1c-.1.1-.12.18-.05.25.07.07.16.06.27-.03.2-.17.37-.25.5-.25s.34.12.63.37c.3.25.84.78 1.65 1.6.75.79 1.3 1.37 1.64 1.75.33.39.5.66.53.84.01.17-.08.38-.27.63-.07.09-.08.16-.03.22.07.08.16.07.25-.01.06-.05.12-.13.2-.23a13.76 13.76 0 0 1 1.94-1.84l.17-.16c.15-.13.18-.25.08-.34-.06-.07-.16-.05-.3.08-.18.18-.36.26-.55.23-.19-.03-.51-.26-.98-.7-.46-.43-1.1-1.06-1.92-1.9a15.1 15.1 0 0 1-1.3-1.46c-.16-.25-.23-.43-.2-.57 0-.11.11-.29.3-.51.07-.1.08-.19.03-.25-.08-.07-.16-.06-.27.05l-1.18 1.2a42.3 42.3 0 0 1-1.14 1.03s.1-.09 0 0zm-4.75 5.66c-.14.16-.16.28-.09.35.1.06.18.05.26-.06l.09-.11c.23-.29.47-.39.72-.3.27.09.9.53 1.9 1.37a25.34 25.34 0 0 1 2.64 2.3c.2.25.19.54-.04.83-.12.18-.15.3-.08.36.08.07.2.03.3-.1l1.06-1.4a178.37 178.37 0 0 0 1.11-1.25c.1-.13.1-.23.02-.31-.05-.04-.1-.05-.15-.03-.05.03-.13.1-.24.24-.16.19-.32.3-.41.35-.13.06-.27.04-.44 0a2.85 2.85 0 0 1-.72-.5l-1.6-1.3c.45-.54.82-.82 1.1-.86.27-.02.55.07.84.25.13.08.21.08.28.01.04-.05.04-.1.03-.13a6.63 6.63 0 0 0-.74-.67l-1.35-1.15c-.1-.08-.2-.08-.26 0-.04.05-.03.1.04.2.23.32.37.57.4.75.05.19.01.37-.09.59-.09.2-.26.46-.52.78-1.32-1.08-2-1.67-2.04-1.8-.05-.12.1-.4.43-.83.52-.62.99-.99 1.4-1.1.4-.13.88-.16 1.4-.1.1 0 .16 0 .2-.05.04-.04.03-.12-.07-.18l-.06-.05-1.48-.83-3.84 4.73s.14-.17 0 0zm-2.88 8.87c-.2.4-.2.8-.06 1.2.15.43.42.72.81.9a1.54 1.54 0 0 0 2.1-.74c.2-.4.21-.81.07-1.22-.15-.41-.42-.72-.81-.9-.4-.19-.8-.2-1.22-.06-.4.15-.7.42-.9.82 0 0 .2-.4 0 0zm-5.55 9.83l-.04.13c-.17.75-.1 1.4.2 1.92.3.53.74.86 1.3.97a2.1 2.1 0 0 0 1.92-.6c.24-.26.53-.67.86-1.24.35-.58.65-.97.92-1.16.28-.2.58-.25.9-.18.32.06.57.26.77.58.2.32.25.69.15 1.1-.11.51-.4.92-.83 1.2-.45.3-.96.5-1.55.61-.19.03-.3.1-.32.17-.02.1.02.17.13.2l.16.02 2 .27c.2.04.3 0 .32-.09.02-.08-.04-.18-.17-.27a1.11 1.11 0 0 1-.29-.25c.26-.32.46-.62.63-.94.16-.3.27-.61.33-.92.13-.54.13-1 0-1.4-.11-.39-.32-.74-.61-1.07a2.19 2.19 0 0 0-2.64-.44c-.48.26-.96.84-1.45 1.74a3.4 3.4 0 0 1-.83 1.13.9.9 0 0 1-.73.18.96.96 0 0 1-.68-.51 1.33 1.33 0 0 1-.1-.95c.07-.36.28-.68.62-.98.34-.32.67-.5 1.03-.58l.38-.12c.04-.03.07-.07.08-.14.02-.1-.01-.16-.1-.18l-.2-.02-1.52-.13c-.16-.01-.25.02-.26.12-.03.07.01.14.11.23.1.06.15.12.2.18a5.68 5.68 0 0 0-.7 1.42zm-.9 7.28l-.34 4.25a11.48 11.48 0 0 0 1.83.34c.1 0 .17-.06.17-.18.01-.09-.06-.16-.19-.23-.35-.18-.62-.4-.83-.66-.2-.27-.32-.53-.36-.82-.04-.27-.04-.7 0-1.32a39.02 39.02 0 0 1 5.77.27c.3.05.5.17.63.34.12.18.17.43.16.75-.01.15.04.22.14.22.08.01.12-.03.15-.11l.03-.35.02-.7.08-1.62.1-1.15.02-.16c0-.12-.05-.19-.16-.2-.08 0-.13.07-.15.21-.06.42-.13.7-.22.8-.07.11-.2.19-.38.22-.16.04-.65.05-1.45.04l-2.51-.1c-.85-.06-1.55-.13-2.12-.22.05-.67.1-1.15.19-1.43.09-.29.25-.53.47-.74.23-.2.5-.37.8-.49.19-.09.28-.16.28-.25.01-.13-.05-.19-.2-.2l-.88.03c-.47.01-.78.03-.93.04l-.03.38-.02.73c-.01.84-.04 1.61-.07 2.31 0 0 .06-.92 0 0zm1.75 15.56l.02-.03c.06-.12.28-.23.65-.35a50.43 50.43 0 0 1 4.55-1.06c.5-.1.84-.1 1-.03.15.08.29.27.4.57.04.1.1.16.18.13.1-.02.14-.1.1-.24a13.1 13.1 0 0 1-.4-1.48c-.06-.25-.13-.72-.24-1.4l-.04-.24c-.05-.19-.13-.27-.25-.25.04-.03.06-.12.05-.23l-.24-1.74a12.4 12.4 0 0 1-.05-.81 7.71 7.71 0 0 0-.06-.86c0-.17-.08-.24-.2-.24-.06.01-.1.04-.13.1a2 2 0 0 0 0 .33c.02.24 0 .43-.04.54-.04.12-.15.23-.31.3-.16.07-.45.13-.85.17l-2.05.22c-.06-.7 0-1.17.17-1.38.17-.21.44-.36.77-.44.14-.02.21-.1.2-.18 0-.07-.03-.1-.08-.13-.04 0-.38 0-1 .06l-1.74.15c-.15.01-.21.08-.2.19 0 .05.06.1.16.11.4.05.68.14.84.24.14.1.26.27.35.48.07.21.14.52.18.93-1.7.18-2.6.23-2.71.18-.14-.05-.22-.35-.27-.9-.1-.8-.04-1.38.18-1.77.2-.38.52-.73.91-1.06.08-.06.12-.12.12-.17-.02-.08-.06-.1-.17-.09l-.08.01-1.63.46.63 6.07c.02.21.09.31.19.3.12 0 .16-.08.14-.2l-.02-.16c-.03-.37.07-.6.3-.73.24-.12 1.01-.25 2.3-.38 2-.2 3.17-.3 3.5-.25.32.04.5.25.57.61.02.22.1.32.2.31-.05.04-.05.14-.02.26.05.25.02.46-.1.6-.11.15-.48.3-1.1.48-.6.17-1.49.39-2.63.65-.98.23-1.63.34-1.91.35-.3 0-.5-.02-.6-.1-.08-.08-.18-.26-.28-.53-.05-.13-.1-.17-.2-.16-.08.03-.12.1-.08.25l.4 1.65c.06.17.1.42.15.72.06.4.1.66.14.78.03.14.09.2.18.17.1-.03.14-.1.12-.25-.03-.24-.02-.42.03-.53zm3.47 8.4c1 .41 1.98.43 2.97.05.7-.27 1.25-.67 1.62-1.21.38-.54.6-1.14.67-1.8a4.52 4.52 0 0 0-.3-2.07 6.13 6.13 0 0 0-2.17-2.76l-.36.12c-.97.33-1.5.5-1.62.47-.09-.02-.2-.1-.31-.28l-.28-.4c-.03-.03-.08-.03-.12-.01-.1.03-.12.1-.08.2l.97 2.38.3.79c.04.12.11.16.21.12.1-.04.12-.12.07-.25a2.64 2.64 0 0 1-.1-.71.57.57 0 0 1 .2-.35c.13-.1.49-.26 1.07-.48.25-.1.48-.14.64-.13.18.04.37.16.6.4.23.22.39.46.49.73.24.62.15 1.29-.27 1.97a3.9 3.9 0 0 1-2.05 1.57c-.84.33-1.65.4-2.43.21a2.09 2.09 0 0 1-1.58-1.37 2.48 2.48 0 0 1-.05-1.71c.18-.58.5-1.1.95-1.6.1-.1.13-.2.1-.28-.05-.1-.11-.13-.22-.08l-.16.08-1.45.72c-.22.1-.3.2-.26.29.03.09.12.13.27.12.1 0 .19.04.2.11.03.06.04.14.04.24-.02.5-.02.95 0 1.33.04.37.12.77.27 1.2a3.99 3.99 0 0 0 2.13 2.37c-.18-.07-.81-.34 0 0l.04.02zm7.4 8.18c1.02.38 1.73.55 2.11.5.38-.07.7-.18.97-.36.45-.33.7-.73.76-1.22.05-.5-.07-.98-.4-1.45-.43-.61-1.19-1.07-2.27-1.37.16-.38.26-.71.27-.99.03-.28-.04-.53-.2-.78-.22-.3-.53-.55-.94-.75-.4-.2-.66-.26-.74-.2-.09.06-.1.13-.03.23l.2.11c.22.07.37.19.46.32.23.32.09.96-.43 1.9-.32 0-.67.02-1.04.09l-1.1.16a1.4 1.4 0 0 1-.97-.38c-.1-.1-.2-.13-.25-.08-.09.05-.1.13-.02.24l.17.22c.19.22.34.42.47.6l.63.92c.1.17.21.23.3.17.06-.05.06-.15 0-.29-.2-.32-.14-.6.18-.82.38-.28.88-.43 1.47-.46-.52 1.1-.8 2.1-.86 3-.77-.2-1.34-.16-1.72.1-.24.18-.4.43-.44.8-.04.34.05.7.31 1.06.27.37.62.6 1.06.69.43.08.82 0 1.16-.25.44-.3.73-.87.89-1.71 0 0-1.03-.39 0 0zm7.24 7.91c.08-.36.08-.7-.03-1.05-.1-.35-.3-.8-.63-1.38a4.06 4.06 0 0 1-.55-1.38c-.03-.33.07-.62.3-.86.21-.25.52-.37.89-.38.36-.01.71.13 1.04.43.37.35.57.79.61 1.32.04.53-.06 1.09-.26 1.64-.07.18-.07.31-.01.36.08.08.15.08.23 0 0-.02.04-.06.1-.13l1.23-1.59c.13-.16.16-.28.1-.34-.08-.06-.18-.05-.33.02-.12.06-.25.11-.35.12-.15-.37-.3-.71-.5-1-.19-.3-.39-.56-.63-.76-.4-.39-.81-.61-1.2-.7-.4-.1-.82-.1-1.24-.02-.43.1-.81.33-1.15.7-.35.38-.54.83-.55 1.38-.02.53.24 1.24.78 2.12.34.56.52.99.55 1.29a.93.93 0 0 1-1 1.04c-.32 0-.6-.13-.87-.37-.26-.25-.45-.6-.54-1.04-.08-.44-.08-.83.02-1.19.06-.2.1-.33.1-.38 0-.05-.03-.1-.09-.14-.07-.07-.14-.07-.2 0l-.12.16-.87 1.24c-.1.14-.1.25-.04.3.05.06.14.06.26 0 .1-.03.18-.05.25-.05.35.65.68 1.11.98 1.4.57.52 1.15.79 1.76.79.6 0 1.1-.2 1.5-.64.22-.24.37-.55.46-.9 0 0-.07.36 0 0zm6.85 2.9l.56-.85c.44-.64.75-.95.96-.94.2.01.4.07.56.19.1.07.2.07.25 0 .06-.1.03-.19-.09-.28l-.54-.32c-.31-.2-.56-.34-.75-.48l-1.38-.99c-.11-.07-.2-.07-.26 0-.06.09-.02.19.11.3.25.17.4.35.4.53.02.16-.04.38-.2.63l-1.34 2a4.4 4.4 0 0 1-.3-.18 1.43 1.43 0 0 1-.53-.6c-.12-.23-.12-.5-.05-.8.08-.32.28-.8.6-1.46.25-.53.34-.94.29-1.25l-1.74-1.23c-.23-.16-.37-.19-.44-.1-.05.08-.02.17.12.28.25.19.4.42.42.69.03.26-.08.71-.3 1.32-.26.67-.32 1.19-.17 1.57.13.36.38.72.76 1.05-.4-.2-.78-.37-1.13-.43a2.1 2.1 0 0 0-1.07.05 1.5 1.5 0 0 0-.81.63 1.5 1.5 0 0 0-.15 1.48c.21.54.66 1.05 1.36 1.52.2.14.45.3.73.46.63.37 1.38.84 2.23 1.42.17.12.29.14.35.04.06-.09.02-.17-.1-.26-.32-.23-.47-.45-.41-.7.06-.24.37-.78.94-1.63zm4.95 6.95c-.06-.12-.05-.28.02-.5.07-.2.31-.75.72-1.64l1.23-2.57c.24-.54.46-.88.66-1 .2-.13.45-.11.78.03.12.06.2.04.24-.05.06-.1 0-.2-.16-.26l-.14-.07a25.75 25.75 0 0 1-2.34-1.04c-.43-.23-.9-.47-1.42-.7l-1.8-.85-1 1.3c-.07.07-.12.13-.13.18-.05.09-.01.15.08.2.07.02.16 0 .27-.09.77-.63 1.8-.65 3.09-.05.34.16.57.32.68.47.1.16.14.32.1.47a19.77 19.77 0 0 1-1.14 2.48c-.5-.24-.85-.5-1-.77a1.18 1.18 0 0 1-.13-.93c.02-.2.01-.31-.06-.35-.1-.04-.17-.03-.22.08-.02.02-.02.04-.03.09a16.96 16.96 0 0 1-1.06 2.25c-.03.02-.04.05-.05.06-.04.09-.02.15.08.2.08.03.15 0 .23-.1.05-.05.18-.15.4-.3a.94.94 0 0 1 .62-.22c.22 0 .44.07.67.19l.38.17-.27.62c-.33.7-.65 1.34-.99 1.9-.3-.08-.6-.19-.9-.32a2.92 2.92 0 0 1-1.13-.82c-.22-.3-.39-.77-.5-1.43-.02-.12-.06-.2-.1-.22-.1-.05-.17-.02-.22.07l-.4 1.72 4.04 1.9 1.19.58c.13.07.2.05.26-.06.03-.08 0-.15-.1-.21a1.3 1.3 0 0 1-.45-.41s.05.12 0 0zm13.29 3.91c.02-.08-.04-.14-.13-.2a1.29 1.29 0 0 1-.44-.37 4.37 4.37 0 0 1-.43-1.18c-.14-.63-.36-1.6-.64-2.93l-.67-3.33-.39-.1-1.3 2.05-1.44 2.25c-.16-.88-.3-1.72-.4-2.51-.22-1.53-.34-2.39-.38-2.58l-.4-.08-1.46 2.27-1.47 2.22a8.1 8.1 0 0 1-1.02 1.36c-.2.2-.37.32-.5.36a.91.91 0 0 1-.41.05c-.16-.03-.25.01-.26.1-.03.1.03.17.17.2l.3.05.94.17.9.24c.18.03.26 0 .3-.09.01-.1-.08-.16-.26-.22a.62.62 0 0 1-.33-.23c-.1-.12-.14-.28-.09-.48.03-.14.08-.26.16-.4.05-.13.38-.62.9-1.46l1.29-1.96c.49 2.56.69 4.05.6 4.5a.67.67 0 0 1-.27.37c-.14.09-.33.1-.57.05-.13-.03-.2 0-.23.1-.01.08 0 .13.04.15l.62.16 1.07.2 1.27.32c.28.07.44.1.49.09.05-.02.08-.05.1-.1.02-.09-.03-.15-.15-.2a.98.98 0 0 1-.44-.27c-.07-.1-.15-.37-.22-.8-.08-.43-.13-.73-.18-.9l1.88-2.9.46 2.21c.25 1.2.39 1.9.41 2.1.04.18.04.33.01.44-.03.15-.11.24-.26.32-.16.06-.3.08-.44.07-.17-.03-.26.01-.29.1-.03.11.04.19.17.2.22.06.53.12.92.18.29.05.51.1.67.14l1.36.33c.18.04.28.05.34.05.05-.01.08-.05.1-.1 0 0-.02.07 0 0zm8.58-3.66a3.38 3.38 0 0 0-1.08-2.7 3.83 3.83 0 0 0-2.65-1.02 3.82 3.82 0 0 0-2.89 1.18 3.82 3.82 0 0 0-1.17 2.73c-.01.67.15 1.29.5 1.86.32.57.76 1.02 1.31 1.32.56.3 1.21.46 1.96.47 1.12 0 2.06-.36 2.81-1.1-.12.12-.65.65 0 0l.02-.02a3.75 3.75 0 0 0 1.19-2.72zm7.7 2.64c.17-.04.24-.1.22-.21-.01-.11-.1-.16-.25-.14a.94.94 0 0 1-.54-.07.77.77 0 0 1-.35-.4c-.11-.2-.19-.51-.28-.97-.16-1.12-.33-2.09-.45-2.91a8.68 8.68 0 0 1-.16-1.54.9.9 0 0 1 .17-.49c.11-.12.28-.21.5-.28a1 1 0 0 0 .25-.1.1.1 0 0 0 .03-.12c-.01-.11-.09-.16-.22-.13l-.22.04a76.03 76.03 0 0 1-5.9.95 27.37 27.37 0 0 0 0 2.36c.03.1.08.15.17.13.08 0 .13-.07.17-.2.21-.63.43-1.08.65-1.37.22-.29.47-.5.75-.65.28-.14.71-.26 1.3-.35.26-.04.43-.02.54.07.1.08.19.37.27.89l.55 3.33c.12.78.2 1.29.2 1.53 0 .23-.05.39-.14.5-.07.11-.25.2-.47.27-.2.06-.32.1-.36.15-.05.03-.06.07-.05.14 0 .1.1.14.25.11.06 0 .2-.04.37-.08.5-.1.88-.19 1.16-.22l1.83-.24s-.17.03 0 0zm7.08-2.25c.2-.07.29-.15.25-.25-.02-.1-.12-.14-.23-.1l-.14.05c-.35.12-.61.06-.78-.15a9.98 9.98 0 0 1-.83-2.18 29.92 29.92 0 0 1-.97-3.36c-.02-.34.15-.56.49-.7.2-.07.3-.15.27-.24-.04-.11-.14-.13-.32-.08l-1.63.6-.78.2-.84.24c-.16.04-.23.12-.18.24.02.06.05.1.1.1.06.01.16-.01.34-.07.23-.06.42-.09.54-.06.13.02.24.1.35.25.11.14.23.41.34.79l.63 1.96c-.67.21-1.13.27-1.38.13a1.34 1.34 0 0 1-.58-.66c-.07-.14-.15-.2-.22-.17-.07.02-.09.05-.1.1-.01.06.08.37.24.96l.51 1.7c.04.13.12.18.23.15.06-.02.07-.08.07-.19-.03-.4 0-.68.07-.86a.88.88 0 0 1 .39-.44c.19-.12.49-.25.87-.36.52 1.6.77 2.49.74 2.62-.03.14-.3.28-.83.45a3.3 3.3 0 0 1-1.76.18 3.75 3.75 0 0 1-1.24-.7c-.07-.05-.14-.08-.17-.06-.08.02-.09.08-.07.19l.04.07.77 1.5 5.81-1.85s-.2.07 0 0zm7.77-4.4a1.94 1.94 0 0 0-.83-2.35c-.32-.2-.65-.3-1-.31-.37-.01-.87.05-1.5.16-.67.14-1.17.16-1.5.1a1.05 1.05 0 0 1-.72-.56 1.23 1.23 0 0 1-.09-.97c.12-.35.37-.64.74-.84.46-.25.93-.31 1.45-.17.52.13 1.02.39 1.47.77.16.11.28.16.35.11.1-.05.11-.11.06-.21l-.1-.14-1.1-1.68c-.12-.17-.21-.23-.29-.19-.08.05-.1.15-.08.32v.38c-.4 0-.78.06-1.12.14-.34.09-.65.2-.92.36-.48.27-.82.58-1.04.92-.21.35-.35.74-.4 1.18-.05.43.05.87.3 1.32.24.44.61.76 1.13.95.5.2 1.25.17 2.26-.07.64-.14 1.1-.19 1.4-.12.27.07.49.22.6.43.17.27.17.55.08.85-.13.3-.32.53-.65.7-.32.18-.71.24-1.15.19a2.28 2.28 0 0 1-1.11-.4l-.34-.2c-.04 0-.09 0-.17.03-.08.04-.1.12-.05.2l.11.16.9 1.23c.1.13.19.17.28.12.06-.04.09-.12.08-.25 0-.1 0-.19.02-.25a5.45 5.45 0 0 0 1.64-.49c.68-.37 1.1-.85 1.3-1.42 0 0-.2.58 0 0zm8.12-5.3c.13-.09.16-.18.09-.27-.05-.04-.08-.07-.11-.07a.7.7 0 0 0-.23.1c-.18.12-.32.17-.45.16-.14 0-.3-.1-.5-.28-.21-.18-.43-.44-.68-.76l-1.8-2.35c-.33-.4-.6-.68-.85-.81a1.86 1.86 0 0 0-.84-.25c-.3 0-.66.08-1.05.25-.36.17-.79.43-1.2.76-.57.45-.97.91-1.19 1.4-.24.47-.3.94-.18 1.4.11.46.46 1.07 1.06 1.82.9 1.15 1.45 1.87 1.62 2.18.19.3.27.57.24.78a.88.88 0 0 1-.23.51c-.1.1-.12.17-.07.24.07.09.18.07.33-.05l.28-.26a10.24 10.24 0 0 1 1.07-.83c.16-.1.29-.18.35-.25.13-.1.17-.2.11-.29-.07-.08-.2-.06-.4.06-.24.16-.5.16-.8 0a5.2 5.2 0 0 1-1.18-1.2 15.5 15.5 0 0 1-1.58-2.3c-.23-.46-.31-.87-.23-1.23.08-.36.32-.7.75-1.04.43-.34.84-.53 1.24-.55.39-.04.72.05 1.03.28.3.22.77.74 1.43 1.57.4.52.75 1 1.05 1.45.32.45.47.79.47 1 .01.23-.08.42-.28.6-.13.1-.15.19-.08.25.06.1.16.07.31-.04.17-.12.38-.3.62-.54l.44-.37 1.44-1.06s-.13.1 0 0zm3.68-3.9l.05-.05a3.86 3.86 0 0 0 1.02-2.9 3.7 3.7 0 0 0-1.3-2.65 3.45 3.45 0 0 0-2.75-.95c-.99.12-1.81.58-2.5 1.36a3.89 3.89 0 0 0-.99 2.94 3.8 3.8 0 0 0 3.04 3.53c.65.13 1.26.07 1.87-.16.56-.22 1.1-.59 1.56-1.11zm6.8-9.84c.09-.16.09-.26 0-.32-.1-.06-.18-.02-.27.12-.13.19-.27.3-.4.37a.96.96 0 0 1-.54.01c-.2-.05-.5-.19-.9-.42-.97-.59-1.81-1.1-2.53-1.52a9.9 9.9 0 0 1-1.27-.88.79.79 0 0 1-.26-.44.94.94 0 0 1 .1-.56.86.86 0 0 0 .08-.27c0-.04-.03-.07-.06-.1-.1-.06-.18-.03-.25.1l-.11.2c-.19.4-.46.86-.8 1.45-1 1.67-1.76 2.9-2.27 3.66 1 .9 1.6 1.4 1.8 1.53.1.06.17.04.21-.04.04-.06.02-.15-.04-.26a4.5 4.5 0 0 1-.63-1.38 2.46 2.46 0 0 1-.02-.99c.07-.3.27-.72.58-1.24.13-.21.25-.33.39-.36.11-.02.4.1.86.35l2.89 1.74a12 12 0 0 1 1.3.84c.18.14.28.28.29.42.04.13 0 .31-.09.55a1.2 1.2 0 0 0-.11.36c-.02.06 0 .1.06.12.08.06.16.02.26-.1l.17-.34.56-1.05 1-1.55s-.09.16 0 0zm3.6-8.37c.07-.15.05-.24-.06-.28-.04-.02-.1-.02-.12 0-.04.02-.08.08-.15.2-.09.18-.2.3-.32.35-.12.07-.31.07-.57.02-.27-.06-.6-.17-.98-.32l-2.71-1.13c-.5-.2-.88-.29-1.15-.29-.28 0-.57.08-.85.22-.27.14-.53.4-.77.73-.25.34-.48.76-.67 1.27a4 4 0 0 0-.35 1.8c.05.53.24.96.56 1.3.34.35.93.69 1.83 1.06 1.34.53 2.17.9 2.49 1.07.3.17.5.35.6.55.08.2.1.38.05.56-.04.13-.02.22.06.24.1.03.18-.02.25-.2l.13-.38a7.4 7.4 0 0 1 .68-1.63c.07-.16.05-.27-.04-.3-.1-.05-.21.03-.32.23-.13.27-.36.4-.7.4-.32.01-.87-.15-1.61-.45-1.27-.5-2.1-.9-2.53-1.18-.43-.3-.7-.6-.82-.95-.1-.35-.05-.78.16-1.3.2-.5.46-.86.77-1.08a1.4 1.4 0 0 1 1.05-.27c.37.03 1.03.25 2.02.64.6.25 1.14.49 1.62.72.5.24.8.45.91.64.12.19.14.4.05.66-.05.13-.03.23.07.26.1.04.18-.02.25-.2.08-.19.16-.44.27-.77.06-.21.13-.4.2-.55l.7-1.64s-.06.14 0 0zm-5.25-8.53c-.02-.1-.02-.25 0-.44 0-.02.03-.05.03-.1.07-.34.22-.58.45-.72.23-.15.89-.4 1.93-.74a96.22 96.22 0 0 0 5.1-1.79l.02-.38c-2.14-1.03-3.86-1.8-5.12-2.34a9.85 9.85 0 0 1-1.22-.58c-.27-.16-.43-.3-.5-.44a1.5 1.5 0 0 1-.22-.53c-.01-.09-.06-.14-.14-.14-.12-.01-.18.06-.18.19v.17c.03.26.03.54.02.83l-.08.71-.06.46c-.01.15.04.23.14.24.1 0 .17-.07.18-.2.03-.2.1-.36.22-.51a.55.55 0 0 1 .48-.21c.3.01.85.21 1.7.57l-.08 1.74-.03.55c-.33.14-.71.27-1.1.38-.41.11-.68.15-.83.15-.31-.02-.48-.26-.5-.71 0-.12-.04-.19-.13-.19-.1 0-.16.07-.16.25-.02.1-.02.3 0 .61 0 .41 0 .74-.03 1 0 .25-.04.58-.1.96l-.05.56-.05.1-.05.36c-.06.43-.11.76-.18 1-.03.19-.1.44-.19.76-.1.4-.18.68-.2.86a7.15 7.15 0 0 0-.22 1.76c.03.43.18.81.45 1.15.27.35.62.57 1.03.66.5.1.94.01 1.36-.28.4-.3.77-.82 1.08-1.53.1 1.35.57 2.11 1.42 2.3.5.1.93 0 1.3-.34.39-.33.66-.82.8-1.49l.16-.9c.07-.64.2-1.33.36-2.04.1-.4.12-.64.12-.73 0-.09-.02-.14-.1-.16-.06 0-.11 0-.14.04a.8.8 0 0 0-.12.27.84.84 0 0 1-.17.34.68.68 0 0 1-.32.13c-.14 0-.46-.03-.93-.11-.48-.09-1.1-.21-1.9-.39l-2.5-.6a1.25 1.25 0 0 1-.56-.21.63.63 0 0 1-.19-.3s.02.09 0 0zm-.29 2c.11-.04.5.01 1.16.16l1.9.47c-.04.21-.06.37-.1.5-.1.54-.35.9-.71 1.11-.38.2-.8.24-1.3.13-.48-.1-.84-.31-1.05-.63-.23-.33-.29-.74-.16-1.26.06-.28.15-.44.25-.48-.03.01-.08.02 0 0h.01zm-15.56-42.48l-.13-.1c-.5-.37-.68-.9-.6-1.6.08-.68.45-1.45 1.12-2.28a4.56 4.56 0 0 1 2-1.63c.67-.2 1.22-.14 1.67.22.45.37.67.9.6 1.56a4.54 4.54 0 0 1-1.12 2.34c-.74.93-1.43 1.48-2.08 1.65-.58.15-1.06.1-1.46-.16zm20.24 45.42c-1.08-.24-1.48-.98-1.2-2.22a36 36 0 0 1 2.85.63c.04.32.02.58-.02.8-.05.3-.23.53-.51.69-.3.17-.66.2-1.12.1zm-45.99-54.9h-.05c-.6-.02-1.09-.34-1.43-.93-.37-.6-.5-1.43-.48-2.51.04-1.12.24-1.95.65-2.5.38-.57.88-.84 1.46-.82.58.02 1.06.31 1.42.9.36.57.53 1.4.5 2.53-.04 1.19-.26 2.05-.68 2.57-.4.5-.86.75-1.39.75zm53.9 43.3c0 30.48-24.76 55.29-55.18 55.29-3.85 0-7.61-.4-11.24-1.15a55.37 55.37 0 0 1-44-54.15c0-30.49 24.78-55.3 55.24-55.3 30.42 0 55.18 24.81 55.18 55.3zm-111.22 0c0 30.92 25.13 56.1 56.04 56.1 30.87 0 56-25.18 56-56.1 0-30.95-25.13-56.12-56-56.12-3.25 0-6.43.28-9.53.81-4.03 0-6.48 0 0 0a56.18 56.18 0 0 0-46.51 55.3zM4032 174.6c31.34 0 56.86 25.56 56.86 56.98 0 31.41-25.52 56.97-56.86 56.97a57.04 57.04 0 0 1-56.91-56.97c0-31.42 25.51-56.98 56.9-56.98 0 0-31.34 0 0 0zm19.42 82.79c-.1-.1-.2-.19-.06-.12-.42-.47-.84-1.3-.54-1.93l.17-.27c.48.07.96.11 1.44.14.15.38.05.85-.4 1.07-.49.24-.44.73-.18 1.1h-.43s.1.1 0 0zm1.25 0c0-.17.01-.33.1-.48.3-.52.72-.52.99-.35v.83zm-3.21-.86l-.02-.01-.1-.09a3.83 3.83 0 0 1-1.26-1.95c.6.17 1.21.32 1.83.43-.4.64.63 1.9 1.35 2.48h-2.1c-1.04-.19-2.18-.2-3.42 0h-5.9v-.07c.02-.02.02-.04.02-.06l-.1.13h-4.32c-.56-.45-1.26-.95-.8-1.7.3-.54 1.78-.96 2.44-1.13.1-.02.2-.05.31-.1a.55.55 0 0 1-.21-.15c-.18-.25.18-.92.31-1.14.27-.53.57-1.03 1-1.49.23.16.44-.02.48.22.08.36.08.8.26 1.3.05.24.15.43.22.6.05 0 .11 0 .16-.02l-.05-.17c-.1-.37-.54-1.54-.36-1.78.33-.41 1.07-.16 1.42-.07.5.1.91.22 1.38.43.87.35-.42 1.52-1.16 2.05-.18.11-.5.33-.75.33l-.03.17c.07-.02.15-.06.24-.06.16-.05.34-.07.53-.07.15-.1.31-.15.52-.17.82-.1 1.58.5 2.11 1.02.37.22.73.47 1 .75.6-.09 1.37-.16 2.25-.12l-.16-.08a5.1 5.1 0 0 1-2.1-1.92.93.93 0 0 0-.51-.1c.08.29-.05.59-.33.73a.63.63 0 0 1-.84-.28.62.62 0 0 1 .2-.8.47.47 0 0 1 .15-.1c.52-.2.98.12 1.24.4a2.56 2.56 0 0 1-.28-1.03c.84.44 1.72.83 2.63 1.14-.36.89.47 1.83 1.38 2.17.45.08.9.18 1.36.31zm-5.26-.27l.16-.03c-.1-.07-.24-.14-.38-.22 0 .02.03.04.04.05l.18.2s-.05 0 0 0zm-10.3.9l.08-.01c.49-.1.78.04 1.02.24h-1.4a.47.47 0 0 1 .3-.23zm27.15-29.87a23.53 23.53 0 0 1 1.88-4.47l.48-.74v7.45zm-2.27-2.37c-.02.08-.03.12-.06.14l-2.4-2.28c.27-.15.66-.23.85-.3.4-.15 1.71-1.01 1.88-.22.06.22-.05.73-.14 1.01-.16.52-.08 1.17-.13 1.65 0 0 .02-.07 0 0zm.41-.72v-.02c.03-.4-.1-1.63.27-1.93.42-.32.75 0 1.37.55.59.5.23.24-.05.88-.27.64-.14 1.49-.47 1.55-.47.12-.28.07-.95-.06-.53.13-.2-.64-.17-.97 0 .08-.02.3 0 0zm.49-2.49l-.04.05a.4.4 0 0 1-.57.09.42.42 0 0 1-.09-.58c.15-.18.4-.22.59-.08a.4.4 0 0 1 .1.52zm-51.9-10.12a8.22 8.22 0 0 0-.42-.38c.34.09.67.14 1.02.18l-.6.2s.14.12 0 0zm6.17 40.6c-.66-.74-2.85-2.41-3.52-3.89.3-.63.52-1.28.67-1.95a10.2 10.2 0 0 1 3.22-.7c1.85-.14 3.77-1.22 5.41-1.63 2-.57.82 5.73-.7 9 .17.12.34.27.52.48.6.7 1.91 1.6 3.2 1.21h-.26c.9-.36 1.07-1.73 1.04-2.37-.07-1.16-4.05-4.05-1.3-5.65 2.73-1.62 3.14 4.1 4.01 4.84.5.42 1.45 1.51 2.27 1.03 0 .06-.07.1-.12.15 1.25-.53 1.7-2.06 1.74-2.98 0-.5.1-.86.27-1.12a7.43 7.43 0 0 1-1.98-.4c-.87-.33-3.48-1.42-3.93-2.38-.45-.96 1.2-2.96 1.74-3.6a21.5 21.5 0 0 1 4.35-4.4c.66.68 1.5.25 1.47 1.06-.01 1.25-.23 2.71-.01 4.55.17 1.84 1 3.04-.33 4.74l-.09.08c.26.23.31.82-.04 2.17a3.7 3.7 0 0 1-2.8 2.56c1.13-.06 2.12-.41 2.51-.98.47-.7 1.13-2.59 2.04-2.34.4.09 1.4.88-.27 2.84-.55.66-1.9 1.09-3.23 1.15.94.16 1.6.2 1.99.15 1.28-.18 1.84-.94 2.35-.77.51.2.46 1.08-.6 1.63-1.06.54-3.58.53-6.45-1.4h-.27c1.96 1.16 3.9 2.08 4.69 2.22 1.27.25 2 .23 2.25.54.26.3.38 1.27-1.24 1.15-1.25-.1-3.78-1.05-6.08-3.92-.15-.02-.3-.04-.42-.08a46.63 46.63 0 0 0 4.89 4.2h-2.16a15.7 15.7 0 0 1-2.95-4.26 2.3 2.3 0 0 1-.6-.33c.04.25-.06.5-.21.73.35 1.49.5 2.76.52 3.87h-.9c.13-1.2.18-2.54.23-3.7l-.26.27c.02 1.43-.11 2.51-.36 3.43h-1.2c.48-.91.84-1.97 1.27-3.23-.07.06-.15.1-.23.14-.37 1.28-.9 2.3-1.45 3.09h-1.28c.4-.3.73-.62 1.08-1.08-.68.5-1.53.9-2.46 1.08h-2.19c-1-.34-1.04-1.24-.85-1.49.56-.76 1.69.13 3.14.1a4.09 4.09 0 0 0 2.99-1.1 3.68 3.68 0 0 1-4.21.07c-.27-.2-.48-.38-.66-.53a.43.43 0 0 0-.08.1c-1.63 1.77-3.36-1.45-4.17-2.35 0 0 .67.74 0 0zm11.9 5.2a27.85 27.85 0 0 0-.61-4.6 30.57 30.57 0 0 0 3 4.6h-1.28l-.21-.42c.05.15.07.28.08.42zm18.64-48.26c1.59 1.2 4.53-1.1 6.7-3.18h3.62c.36 1.58.26 3.25-1.46 4.64-2.92 2.34-8.1 2.73-8.86-1.46 0 0-1.58-1.2 0 0zm5.4-3.18c-2.06 1.76-4.41 3.08-5.65 2-.71-.67-1-1.34-1.17-2h6.82s2.05-1.76 0 0zm-6.86 2.06l.02.03c.42.58-.62 1-1.24 1.44-1.29-1.26-1.15-2.3-2.09-3.53h2.7c.12.73.25 1.54.61 2.06zm-27.82 6.98a1.07 1.07 0 0 1-1.28-.82c-.14-.58.23-1.15.81-1.29.58-.12 1.15.24 1.29.82.14.58-.23 1.15-.82 1.29 0 0 .59-.13 0 0zm6.44-9.04c-.07 2.04-4.69 1.08-6.57 0h6.57s.07-2.03 0 0zm9.9 7.81c-1.81-.15-1.96-1.7-2.25-4.48-.14-1.15-.4-2.3-.48-3.33h9.14l.48.66c1.69.85-1.12 2.13-1.86 2.84-.93.95-3.44 4.42-5.03 4.31 0 0 1.8.15 0 0zm-.03 10.83c.05.25.2 1-.01-.08-.24-1.27-1.38-5.39-.62-6.16 1.23-1.28 3.63-.2 4.85.23.9.28 1.74.6 2.58.97v4.94c-1.05.69-2.18 1.33-3.08 1.83-.82.4-1.9 1.39-2.6.64-.77-.77-.88-1.12-1.12-2.37zm-4.61 1.81c-.9-.24-3.22.61-3.75-.3-.52-.92.93-3.06 1.43-3.75a21.16 21.16 0 0 1 3.91-4.79c.71.65 1.53.13 1.56.95.1 1.24 0 2.7.4 4.52.35 1.84.86 1.35-.3 3.16-.57.9-2.55.38-3.25.21 0 0 .9.24 0 0zm3.58-9.07c-.78.14-1.5-.36-1.66-1.12-.14-.76.37-1.5 1.13-1.64.76-.15 1.5.36 1.64 1.12a1.4 1.4 0 0 1-1.11 1.64s.77-.14 0 0zm-15.08 14.3c-.93-.07-1-.87-1.16-2.3-.16-1.34-.66-2.7.46-3.2 1.07-.53 2.56.33 3.06.63.75.42.45.25 1.16 1.2.88.45-.56 1.1-.94 1.46-.49.5-1.76 2.27-2.58 2.22 0 0 .92.08 0 0zm1.85-.65l.06-.03c.8-.49 1.43-1.43 2.08-2 .94-.87 2.07 3.84 1.71 5.19-.35 1.18-1.88.11-2.46-.11-.7-.28-3.43-.7-2.72-1.93.21-.34.87-.84 1.33-1.12zm-1.3 7.42c-.4-.4-.44-.58-.57-1.25-.14-.65-.7-2.76-.32-3.16.63-.66 1.86-.1 2.5.12.8.25 1.52.55 2.29.98 1.47.77-1.18 2.18-2.55 2.99-.43.2-.97.7-1.35.32zm-2.92-.28c-.4-.11-1.32.18-1.75 0v-1.2c.19-.36.41-.7.55-.88.57-.9 1.16-1.71 2-2.45.37.32.78.06.8.48.06.63 0 1.39.21 2.32.18.93.44.69-.15 1.62-.3.46-1.32.19-1.66.1 0 0 .4.12 0 0zm.68-6.15a18 18 0 0 1-2.42-.65v-4.07c.95-.76 2.2-1.9 2.24-.9.08 1.4 1.04 4.72.18 5.62 0 0 .03-.05 0 0zm-2.43 4.11v-4.4c.84.2 1.36.34 2.3.59-.36.4-.42 1.04.07 1.19-1.58.65-1.8 1.66-2.37 2.62zm2.73-3.19a.72.72 0 0 1 .57-.84c.38-.07.77.18.84.57 0 0-.07-.4 0 0a.7.7 0 0 1-.56.84.7.7 0 0 1-.85-.57zm34.1-10.13c-.7-.06-.92-.52-1.04-1.34l2.82-2.6v2.64c-.57.64-1.28 1.34-1.79 1.3 0 0 .7.06 0 0zm1.78 1.95c-.88-.3-1.69-.74-1.27-1.47.2-.34.8-.81 1.27-1.1v2.57s.88.3 0 0zm-11.58 14.19c-1.95-.75-4.62-1.9-3.42-3.6.48-.65 1.94-1.55 2.88-2l.54-.3zm3.87-9.12c1.56-1.19 2.73 4.29 2.71 7.93.17-.71.77-1.32 2.08-1.54 1.36-.12-.5-3.47-1.88-5.21l.05.04a4.67 4.67 0 0 0 2.75.68c-.5-.99-.33-2.02.42-2.59a2.5 2.5 0 0 1-.23-.82c-.12-.65-.7-2.75-.32-3.15.53-.55 1.46-.26 2.12-.02v8.62c-1.57-.26-3.11-1.33-4.04-2.11 1.02.93 2.86 2.75 4.04 4.6v5.16c-.23.15-.49.26-.74.3l-10.02-9.25c.98-.77 1.9-1.72 2.79-2.43-.33.25-.74.57 0 0l.27-.21zm3.54-.54c-.46-.12-1.65.32-1.93-.15-.26-.48.48-1.56.74-1.93.56-.9 1.16-1.7 2-2.44.38.32.78.06.81.48.05.63 0 1.39.2 2.32.19.93.44.68-.16 1.6-.28.47-1.3.2-1.66.12 0 0 .46.11 0 0zm.7-6.15a3.3 3.3 0 0 1-.93-.2l1.27-1.18c0 .6-.08 1.11-.35 1.38 0 0 .03-.04 0 0zm-3.17 5.03c-.42.37-.9-.9-1.21-2.05l3.2-2.95 1.04.28c-.35.39-.43 1.04.08 1.19-2.1.86-1.8 2.36-3.11 3.53 0 0 .41-.37 0 0zm3.48-4.03l-.01-.07a.7.7 0 0 1 .56-.84c.39-.08.78.17.84.57.08.39-.18.77-.56.84a.72.72 0 0 1-.83-.5zm-8.42 5.44l2.69-2.5.44.77c1.62 1-1.29 2.01-2.08 2.66-1.02.86-3.8 4.09-5.4 3.83-1.8-.3-1.82-1.88-1.85-4.66-.09-2.65.08-1.18 2.35-1.96 1.5-.58 2.85-1.84 3.85-2.35zm-4.79 18.75c-.7-.87-.45-1.94-.59-3.28-.12-1.3-.88-5.49-.06-6.19 1.34-1.15 3.64.14 4.82.67.22.08.43.18.61.26v4.8c0 .86.13 1.67.35 2.46-.66.37-1.3.7-1.85.95-.86.33-2.63 1.12-3.28.33 0 0 .7.86 0 0zm-8.85-15.95c-1.23-.77-3.8-1.2-3.21-3.28.33-1.14 1.62-1.37 2.8-2 1.83-.95 6.35-.55 6.27 1.82-.11 2.74 1.9 4.16.07 5.78-.12.12-5.15-1.85-5.93-2.32 0 0 1.23.78 0 0zm-1.02 11.47c.25-.2 1-.76-.08.06-1.27.96-4.13-3.66-3.38-5.19 1.86-3.84.86-4.55 1.54-5.83 1.04-1.97 2 .1 3.04.44 2.42.73 3.36 1.12 5.54 1.93-.77.7-1.03 1.95-.07 2.32-4.2 1.3-3.92 4.22-6.6 6.27zm10.17-7.58c.08.78-.49 1.47-1.26 1.54a1.4 1.4 0 1 1 1.27-1.55zm-14.05 5.68c1.12 1.53-1.95 1.4-2.94 1.71-1.06.35-3.9 1.77-5.6 1.75.04-.28.05-.55.05-.83v-5.84c.31.06.82.45 2.04.51 2.33.02 4.88-1.4 5.48-.44.94 1.38.56.84.97 3.14 0 0-1.12-1.53 0 0zm-4.7 13.2c.71.97.35 1.72-.53 2.29h-9.79c0-.83.45-1.6.75-2.66.1-.34.23-.91.4-1.56a13.68 13.68 0 0 0 3.9-3.8c.89.56 1.65 1.46 2.17 2a22.58 22.58 0 0 1 3.1 3.72s-.7-.98 0 0zm24.52-4.39c.09-.2.44-.54.68-.72.58.7 1.28 1.32 2.12 1.9-.34.12-.91-.17-1.16-.25-.4-.1-1.97-.2-1.64-.93zm-1.1-1.48c-.18-.76-.05-.35.56-.7.06-.03.11-.08.17-.12.24.47.53.93.88 1.37-.28.35-.58.7-.84.7-.53 0-.63-.46-.78-1.25 0 0 .17.76 0 0zm-.51-.14c.12.8.77 1.1.33 1.66-.02.05-1.58-.25-1.83-.33-.4-.16-1.16-.13-1.09-.78.02-.34.38-.48.69-.73.48-.36 1.8-.5 1.9.18 0-.06-.12-.77 0 0zm-1.17 4.7c-.33.35-1.4-.82-1.28-1.3.34-1.2 0-1.36.13-1.76.2-.63.59-.09.9-.05.73.09 1.04.14 1.72.26-.2.24-.2.6.08.67-1.13.6-.88 1.43-1.55 2.19 0 0 .32-.35 0 0zm2-3.04a.41.41 0 1 1 .24.8.4.4 0 0 1-.5-.29.42.42 0 0 1 .27-.5s-.23.06 0 0zm18.9-35.82c.7 0 1.27.57 1.27 1.28 0 .7-.57 1.27-1.27 1.27-.7 0-1.25-.57-1.25-1.27 0-.7.55-1.28 1.25-1.28 0 0-.7 0 0 0zm-29.56 37.35a1.27 1.27 0 1 1 .02-2.55 1.27 1.27 0 0 1-.02 2.55s.69 0 0 0zm31.72-37.9c.46 0 .87.39.87.88a.88.88 0 0 1-1.76 0c0-.5.4-.89.89-.89 0 0-.47 0 0 0zm-40.19 38.1a1.64 1.64 0 1 1 3.28 0 1.64 1.64 0 0 1-3.28 0s0 .91 0 0zm6.83-4.15c.5 0 .87.4.87.88s-.37.88-.87.88a.88.88 0 1 1 0-1.76s-.49 0 0 0zm-5.3-2.97a.87.87 0 1 1 1.75 0 .87.87 0 0 1-1.74 0s0 .48 0 0zm40.23-31.98c.4 0 .68.3.68.68 0 .37-.29.68-.68.68a.68.68 0 0 1 0-1.36s-.38 0 0 0z"/></defs><g><g transform="translate(-3893 -173)"><use fill="#fff" xlink:href="#7nl7a"/></g></g></svg>